<svg xmlns="http://www.w3.org/2000/svg" style="fill:red" width="20" height="20" viewBox="0 0 20 20">
	<path id="Drivers" d="M1138,831h-16a2,2,0,0,1-2-2v-4a2,2,0,0,1,2-2h1l2,2h-3v4h16v-4h-3l2-2h1a2,2,0,0,1,2,2v4A2,2,0,0,1,1138,831Zm-2-5a1,1,0,0,1,0,2h-2a1,1,0,0,1,0-2h2Zm-5.14-.5a0.958,0.958,0,0,1-.14.217,0.924,0.924,0,0,1-.49.237,0.575,0.575,0,0,1-.46,0,0.932,0.932,0,0,1-.49-0.237,0.958,0.958,0,0,1-.14-0.217l-3.86-3.856a0.961,0.961,0,1,1,1.36-1.358l2.36,2.358V814a1,1,0,0,1,2,0v8.642l2.36-2.358a0.961,0.961,0,1,1,1.36,1.358Z" transform="translate(-1120 -812)"/>
</svg>